<?xml version="1.0" standalone="no"?>
<!DOCTYPE svg PUBLIC "-//W3C//DTD SVG 20010904//EN"
 "http://www.w3.org/TR/2001/REC-SVG-20010904/DTD/svg10.dtd">
<svg version="1.0" xmlns="http://www.w3.org/2000/svg"
 width="145.000000pt" height="145.000000pt" viewBox="0 0 145.000000 145.000000"
 preserveAspectRatio="xMidYMid meet">
<metadata>
Created by potrace 1.11, written by Peter Selinger 2001-2013
</metadata>
<g transform="translate(0.000000,145.000000) scale(0.100000,-0.100000)"
fill="#000000" stroke="none">
<path d="M593 1409 c-260 -49 -466 -238 -548 -504 -19 -61 -27 -245 -14 -310
61 -288 268 -500 546 -560 66 -14 268 -15 290 -2 5 3 22 8 38 11 38 7 165 68
217 105 275 191 371 547 233 865 -80 185 -284 348 -490 391 -70 14 -206 16
-272 4z"/>
</g>
</svg>
