<?xml version="1.0" standalone="no"?>
<!DOCTYPE svg PUBLIC "-//W3C//DTD SVG 20010904//EN"
 "http://www.w3.org/TR/2001/REC-SVG-20010904/DTD/svg10.dtd">
<svg version="1.0" xmlns="http://www.w3.org/2000/svg"
 width="350.000000pt" height="350.000000pt" viewBox="0 0 350.000000 350.000000"
 preserveAspectRatio="xMidYMid meet">
<metadata>
Created by potrace 1.11, written by Peter Selinger 2001-2013
</metadata>
<g transform="translate(0.000000,350.000000) scale(0.100000,-0.100000)"
fill="#000000" stroke="none">
<path d="M27 3212 l-27 -3 0 -1445 c0 -955 3 -1444 10 -1445 6 0 75 -1 155 -1
80 0 151 1 158 1 11 1 13 228 13 1278 l0 1278 586 0 c621 0 741 -6 871 -45
314 -95 512 -319 545 -616 18 -163 -11 -341 -78 -474 -30 -60 -117 -180 -130
-180 -43 0 37 -110 433 -600 7 -8 120 -150 251 -315 131 -165 245 -306 252
-314 10 -11 52 -14 201 -13 103 0 198 1 210 1 19 1 0 29 -120 179 -78 98 -155
195 -172 216 -16 22 -35 44 -40 50 -6 6 -35 43 -65 81 -30 39 -60 77 -67 85
-7 8 -28 33 -46 56 -17 22 -46 58 -63 80 -18 21 -109 136 -202 254 l-171 214
29 56 c44 82 78 185 95 280 20 113 23 148 20 275 -2 77 -10 172 -18 210 -61
277 -226 509 -470 663 -127 79 -318 151 -447 168 -19 2 -46 7 -60 10 -56 11
-330 16 -960 17 -366 1 -677 1 -693 -1z"/>
<path d="M658 2612 l-56 -3 1 -892 2 -891 228 -1 227 0 0 328 0 327 108 0 107
-1 45 -62 c25 -34 48 -66 53 -72 4 -5 89 -120 188 -255 100 -135 185 -249 190
-255 6 -5 122 -9 289 -10 l279 0 -15 24 c-13 19 -125 164 -261 336 -13 17 -27
35 -31 40 -32 42 -187 241 -192 245 -4 4 -26 32 -82 106 -6 8 16 27 66 58 191
119 277 273 274 494 -1 174 -70 295 -218 386 -56 35 -155 73 -213 81 -90 14
-815 26 -989 17z m823 -360 c89 -40 122 -95 118 -201 -2 -75 -25 -131 -71
-173 -64 -57 -111 -68 -325 -73 l-143 -4 0 239 0 239 73 3 c136 6 301 -8 348
-30z"/>
<path d="M636 577 c-26 -55 -28 -57 -75 -63 -76 -10 -79 -17 -32 -60 41 -36
42 -39 36 -83 -3 -25 -8 -54 -11 -63 -7 -24 1 -22 60 11 l50 27 53 -29 c30
-16 56 -28 57 -26 2 2 -2 30 -9 61 l-11 57 43 43 c24 23 43 45 43 48 0 3 -11
6 -25 6 -81 5 -94 13 -124 71 l-28 56 -27 -56z"/>
<path d="M1114 578 c-25 -51 -32 -59 -64 -64 -19 -3 -48 -8 -64 -11 l-29 -5
47 -43 c37 -33 46 -47 42 -66 -2 -13 -7 -41 -11 -61 -4 -21 -4 -38 -1 -38 3 0
31 14 60 30 33 19 57 27 61 21 5 -9 90 -51 102 -51 2 0 2 4 -1 9 -3 5 -8 26
-11 47 -3 22 -8 45 -10 51 -2 7 16 32 41 55 49 46 46 58 -17 58 -46 0 -64 14
-93 75 l-24 50 -28 -57z"/>
<path d="M1591 580 c-26 -58 -41 -68 -104 -72 -26 -2 -47 -4 -47 -6 0 -2 20
-24 44 -49 32 -33 43 -51 40 -67 -3 -11 -8 -39 -11 -60 l-6 -39 54 29 54 29
55 -27 c30 -16 56 -28 58 -28 4 0 -4 52 -14 96 -4 15 7 33 41 67 l46 46 -33 5
c-18 4 -46 8 -62 11 -34 5 -28 -2 -60 63 -14 28 -28 52 -29 52 -2 0 -14 -23
-26 -50z"/>
<path d="M2066 573 c-29 -62 -29 -62 -128 -66 -26 -2 -23 -8 26 -56 41 -40 43
-45 35 -79 -5 -21 -9 -47 -9 -59 l0 -23 54 27 54 26 53 -26 c29 -15 54 -25 56
-24 2 2 -2 29 -8 61 l-12 57 43 44 c48 48 46 51 -30 59 -25 3 -46 5 -47 5 -1
1 -13 26 -28 56 -14 30 -27 55 -28 55 -2 0 -16 -26 -31 -57z"/>
<path d="M2546 579 c-26 -57 -41 -68 -96 -69 -52 -1 -55 -15 -11 -55 40 -36
41 -39 35 -84 -3 -25 -8 -54 -10 -63 -7 -23 -3 -23 55 7 34 18 57 24 75 19 14
-3 26 -10 26 -14 0 -4 8 -10 18 -13 9 -2 26 -8 36 -13 13 -5 17 -4 13 3 -4 6
-10 35 -13 65 -5 52 -5 54 35 93 23 21 41 42 41 45 0 3 -15 7 -32 8 -18 2 -42
4 -53 7 -11 2 -23 4 -27 4 -4 1 -21 27 -37 59 l-29 57 -26 -56z"/>
</g>
</svg>
